HIERARCHY
ROOT Hips
{
	OFFSET	0.00	0.00	0.00
	CHANNELS 6 Xposition Yposition Zposition Zrotation Xrotation Yrotation
	JOINT LeftUpLeg
	{
		OFFSET	 0.126116	-0.014019	-0.065224
		CHANNELS 3 Zrotation Xrotation Yrotation
		JOINT LeftLeg
		{
			OFFSET	 0.000000	 0.000000	 0.569914
			CHANNELS 3 Zrotation Xrotation Yrotation
			JOINT LeftFoot
			{
				OFFSET	 0.000000	 0.000000	 0.544423
				CHANNELS 3 Zrotation Xrotation Yrotation
				JOINT LeftToeBase
				{
					OFFSET	 0.000000	 0.000000	 0.207117
					CHANNELS 3 Zrotation Xrotation Yrotation
					End Site
					{
						OFFSET	 0.000000	 0.000000	 0.207117
					}
				}
			}
		}
	}
	JOINT RightUpLeg
	{
		OFFSET	-0.124023	-0.008373	-0.065224
		CHANNELS 3 Zrotation Xrotation Yrotation
		JOINT RightLeg
		{
			OFFSET	 0.000000	 0.000000	 0.570047
			CHANNELS 3 Zrotation Xrotation Yrotation
			JOINT RightFoot
			{
				OFFSET	 0.000000	 0.000000	 0.544354
				CHANNELS 3 Zrotation Xrotation Yrotation
				JOINT RightToeBase
				{
					OFFSET	 0.000000	 0.000000	 0.207540
					CHANNELS 3 Zrotation Xrotation Yrotation
					End Site
					{
						OFFSET	 0.000000	 0.000000	 0.207540
					}
				}
			}
		}
	}
	JOINT Spine
	{
		OFFSET	 0.000184	-0.007763	 0.117403
		CHANNELS 3 Zrotation Xrotation Yrotation
		JOINT Spine1
		{
			OFFSET	 0.000000	 0.000000	 0.137269
			CHANNELS 3 Zrotation Xrotation Yrotation
			JOINT Spine2
			{
				OFFSET	 0.000000	 0.000000	 0.156879
				CHANNELS 3 Zrotation Xrotation Yrotation
				JOINT LeftShoulder
				{
					OFFSET	 0.080501	-0.002496	 0.160144
					CHANNELS 3 Zrotation Xrotation Yrotation
					JOINT LeftArm
					{
						OFFSET	 0.000000	 0.000000	 0.164363
						CHANNELS 3 Zrotation Xrotation Yrotation
						JOINT LeftForeArm
						{
							OFFSET	 0.000000	 0.000000	 0.364576
							CHANNELS 3 Zrotation Xrotation Yrotation
							JOINT LeftHand
							{
								OFFSET	 0.000000	 0.000000	 0.360812
								CHANNELS 3 Zrotation Xrotation Yrotation
								JOINT LeftHandIndex1
								{
									OFFSET	 0.000000	 0.000000	 0.086006
									CHANNELS 3 Zrotation Xrotation Yrotation
									JOINT LeftHandIndex2
									{
										OFFSET	 0.000000	 0.000000	 0.047236
										CHANNELS 3 Zrotation Xrotation Yrotation
										JOINT LeftHandIndex3
										{
											OFFSET	-0.004284	-0.000551	 0.038166
											CHANNELS 3 Zrotation Xrotation Yrotation
											End Site
											{
												OFFSET	-0.004284	-0.000551	 0.038166
											}
										}
									}
								}
							}
						}
					}
				}
				JOINT Neck
				{
					OFFSET	 0.000000	 0.000000	 0.176489
					CHANNELS 3 Zrotation Xrotation Yrotation
					JOINT Head
					{
						OFFSET	 0.000000	-0.001747	 0.077940
						CHANNELS 3 Zrotation Xrotation Yrotation
						End Site
						{
							OFFSET	 0.000000	-0.001747	 0.077940
						}
					}
				}
				JOINT RightShoulder
				{
					OFFSET	-0.080363	 0.000306	 0.159706
					CHANNELS 3 Zrotation Xrotation Yrotation
					JOINT RightArm
					{
						OFFSET	 0.000000	 0.000000	 0.164196
						CHANNELS 3 Zrotation Xrotation Yrotation
						JOINT RightForeArm
						{
							OFFSET	 0.000000	 0.000000	 0.365611
							CHANNELS 3 Zrotation Xrotation Yrotation
							JOINT RightHand
							{
								OFFSET	 0.000000	 0.000000	 0.360648
								CHANNELS 3 Zrotation Xrotation Yrotation
								JOINT RightHandIndex1
								{
									OFFSET	 0.000000	 0.000000	 0.069977
									CHANNELS 3 Zrotation Xrotation Yrotation
									JOINT RightHandIndex2
									{
										OFFSET	 0.000000	 0.000000	 0.052305
										CHANNELS 3 Zrotation Xrotation Yrotation
										JOINT RightHandIndex3
										{
											OFFSET	 0.009002	-0.000782	 0.042196
											CHANNELS 3 Zrotation Xrotation Yrotation
											End Site
											{
												OFFSET	 0.009002	-0.000782	 0.042196
											}
										}
									}
								}
							}
						}
					}
				}
			}
		}
	}
}
MOTION
Frames:    11
Frame Time: 0.03333334
 0.000101	 0.041735	 1.275581	-0.102460	 2.112894	 0.450034	 4.208892	-5.202811	 178.179000	 2.357123	-12.921150	 0.620682	-0.603493	 71.111700	 0.391418	-2.385833	 28.452750	 0.000004	 3.420767	-4.829470	-178.364600	-0.806639	-11.618780	 0.875607	 5.582140	 70.150390	 0.734392	 2.384659	 28.388700	-0.000001	-6.309627	 6.118962	 1.302046	-3.028532	-2.573107	-0.152555	 9.463408	 5.099259	-0.491149	-91.261340	 70.435780	-178.048000	-8.897635	 3.891899	-20.301440	 26.345890	-0.136891	-0.533125	-10.356320	-21.460590	-4.222044	-2.027600	 6.559038	 9.033609	-5.188889	 0.308190	 3.541030	-5.234859	 0.342567	 0.430617	 4.184958	 16.093280	-6.157047	 4.518426	-12.340490	 2.154611	 89.139960	 69.573460	 177.632000	 9.598080	 7.851264	 6.144997	-26.271920	-8.660625	 24.130980	 7.978725	-21.853400	 6.848338	 1.803333	 3.979147	-15.098590	 4.898592	 3.004813	-9.310344	 5.224449	 0.395017	 2.014677
-0.001034	 0.049793	 1.276852	 0.018116	 3.919297	 0.505981	 4.171465	-6.895120	 178.190100	 2.086654	-11.489570	 0.511788	 0.070425	 69.788160	-0.157761	-2.385833	 28.452750	 0.000004	 2.999443	-6.296063	-178.268400	-0.793291	-9.787208	 0.741351	 4.505023	 68.726220	 1.861122	 2.384659	 28.388700	-0.000001	-7.935255	 7.297834	 1.631130	-3.267567	-6.378045	-0.553796	 9.744421	 9.765121	-1.033880	-90.906230	 67.992640	-177.271200	-6.766191	 4.682796	-24.435110	 24.303900	-0.111105	-1.045403	-7.535742	-25.488880	-5.549809	-2.027600	 6.559038	 9.033609	-5.188889	 0.308190	 3.541030	-5.234859	 0.342567	 0.430617	 4.724068	 22.828830	-8.222895	 5.448902	-17.460310	 2.433394	 88.592180	 65.772220	 176.602500	 6.994975	 7.203019	 9.003789	-25.321150	-8.963840	 26.644670	 4.263164	-24.367910	 5.979165	 1.803333	 3.979147	-15.098590	 4.898592	 3.004813	-9.310344	 5.224449	 0.395017	 2.014677
-0.002004	 0.057758	 1.276768	 0.150202	 5.530509	 0.609920	 4.122717	-9.022264	 178.147500	 2.138992	-11.373410	 0.504280	 0.517644	 69.317630	-0.661001	-2.385832	 28.452790	-0.000001	 2.600018	-8.103839	-178.304200	-1.066788	-9.091915	 0.645697	 4.026961	 67.923790	 2.664664	 2.384659	 28.388700	-0.000001	-8.836793	 7.998197	 1.751438	-3.380459	-8.669172	-0.759699	 9.562250	 12.300960	-1.374289	-90.829640	 66.470980	-177.290100	-4.897827	 6.413585	-27.095100	 22.002150	-0.075320	-1.418054	-7.373585	-28.226770	-7.211562	-2.027600	 6.559038	 9.033609	-5.188889	 0.308190	 3.541030	-5.234859	 0.342567	 0.430617	 4.512750	 25.564450	-8.782685	 5.938349	-19.822440	 2.536312	 88.402810	 63.259280	 176.501000	 4.632619	 7.997670	 10.843820	-24.096050	-8.511570	 27.630230	 2.420552	-26.049210	 6.132244	 1.803333	 3.979147	-15.098590	 4.898592	 3.004813	-9.310344	 5.224449	 0.395017	 2.014677
-0.002667	 0.064938	 1.276367	 0.297675	 6.963088	 0.675481	 3.944922	-11.303550	 178.128200	 2.107210	-12.068830	 0.528005	 1.015467	 69.244130	-1.192131	-2.385832	 28.452790	-0.000001	 2.325730	-9.978315	-178.330900	-1.300447	-9.019607	 0.591730	 3.852355	 67.497600	 3.188045	 2.384659	 28.388700	-0.000001	-9.467002	 8.460163	 1.786747	-3.428946	-10.192800	-0.842924	 9.307331	 13.894700	-1.597491	-90.974720	 65.382400	-177.831300	-3.419320	 7.646074	-28.587930	 19.966210	-0.039601	-1.709270	-8.009673	-29.927780	-8.726595	-2.027600	 6.559038	 9.033609	-5.188889	 0.308190	 3.541030	-5.234859	 0.342567	 0.430617	 4.150419	 26.651510	-8.818728	 6.126379	-20.945580	 2.505138	 88.505820	 61.665180	 176.956000	 2.513856	 8.696416	 11.543930	-22.916040	-8.135463	 28.758480	 1.335102	-27.156910	 6.566880	 1.803333	 3.979147	-15.098590	 4.898592	 3.004813	-9.310344	 5.224449	 0.395017	 2.014677
-0.003030	 0.074358	 1.275359	 0.583067	 8.825721	 0.666805	 3.588161	-14.494650	 178.201100	 2.023706	-13.394940	 0.565638	 1.786954	 69.155190	-1.972132	-2.385833	 28.452760	 0.000004	 1.826583	-12.822720	-178.341800	-1.553708	-9.715343	 0.607036	 3.643100	 67.287560	 3.621423	 2.384659	 28.388700	-0.000001	-10.172970	 8.812310	 1.779210	-3.434211	-11.952610	-0.926329	 8.934119	 15.341950	-1.704614	-91.550410	 64.828350	-179.404900	-1.792142	 9.578646	-28.958110	 18.319210	 0.001157	-2.037347	-8.881443	-31.291930	-10.415540	-2.027600	 6.559038	 9.033609	-5.188889	 0.308190	 3.541030	-5.234859	 0.342567	 0.430617	 3.692475	 26.965480	-8.739171	 6.190462	-21.634850	 2.489327	 89.039830	 60.942480	 178.273700	-0.119485	 10.374740	 10.891040	-21.740120	-7.951962	 30.641170	 0.307450	-28.362150	 7.047209	 1.803333	 3.979147	-15.098590	 4.898592	 3.004813	-9.310344	 5.224449	 0.395017	 2.014677
-0.003382	 0.085790	 1.274009	 0.801017	 10.987790	 0.575718	 3.282515	-18.038110	 178.368500	 2.023491	-14.562480	 0.613855	 2.568033	 68.999870	-2.870893	-2.385832	 28.452790	-0.000001	 1.578277	-16.327880	-178.256800	-1.733187	-10.826550	 0.641837	 3.310101	 67.255580	 4.202855	 2.384659	 28.388700	-0.000001	-10.871180	 9.163584	 1.843134	-3.337611	-13.276270	-1.002758	 8.491696	 16.299600	-1.547914	-92.305150	 64.997030	 178.594600	-0.008515	 12.448120	-29.319070	 17.761650	 0.042010	-2.388998	-9.173480	-32.537200	-11.486500	-2.027600	 6.559038	 9.033609	-5.188889	 0.308190	 3.541030	-5.234859	 0.342567	 0.430617	 3.272278	 25.814370	-8.933224	 6.068125	-21.491960	 2.333203	 89.777430	 60.451280	 179.989100	-2.768404	 12.862170	 10.442190	-20.212590	-7.382528	 32.265400	 0.053685	-29.814780	 7.571666	 1.803333	 3.979147	-15.098590	 4.898592	 3.004813	-9.310344	 5.224449	 0.395017	 2.014677
-0.004690	 0.101395	 1.272376	 1.566071	 14.425520	 0.601183	 2.234159	-23.152940	 178.225400	 2.452709	-15.665330	 0.775348	 2.902473	 68.410040	-3.771521	-2.385832	 28.452790	-0.000001	 0.750401	-21.267750	-178.446000	-1.581312	-11.890420	 0.735441	 2.175927	 66.738650	 5.329898	 2.384659	 28.388700	-0.000001	-11.853950	 9.188984	 1.753323	-3.425166	-14.222570	-1.200926	 7.788985	 16.454980	-1.395440	-93.129330	 65.230450	 176.365800	 2.454964	 15.355860	-30.252090	 17.272110	 0.098194	-2.803347	-9.302631	-33.524780	-12.441240	-2.027600	 6.559038	 9.033609	-5.188889	 0.308190	 3.541030	-5.234859	 0.342567	 0.430617	 2.862705	 24.752370	-8.755272	 5.811314	-21.544230	 2.125822	 90.676650	 60.413290	-177.956200	-5.990271	 16.151220	 11.050460	-18.568870	-6.500804	 33.411390	 0.121061	-31.154930	 8.370345	 1.803333	 3.979147	-15.098590	 4.898592	 3.004813	-9.310344	 5.224449	 0.395017	 2.014677
-0.006940	 0.116250	 1.270628	 2.693367	 18.084550	 0.597413	 0.654328	-28.102820	 177.750400	 3.099381	-16.258190	 0.985480	 2.588110	 67.096770	-4.214772	-2.385833	 28.452760	 0.000004	-0.470891	-25.995040	-178.819600	-1.466831	-12.628600	 0.805495	 1.106446	 65.896510	 6.446086	 2.384659	 28.388700	-0.000001	-12.914350	 9.109214	 1.562941	-3.644827	-14.139970	-1.204597	 7.029006	 15.746380	-1.462411	-93.785320	 65.501270	 174.534200	 4.582276	 17.206270	-31.618120	 16.784250	 0.161117	-3.191201	-9.461615	-34.232330	-13.234280	-2.027600	 6.559038	 9.033609	-5.188889	 0.308190	 3.541030	-5.234859	 0.342567	 0.430617	 2.538126	 24.193730	-8.073228	 5.450734	-21.925770	 1.815865	 91.469070	 60.827400	-176.093100	-8.888391	 19.240990	 12.668330	-17.280730	-5.792515	 34.525210	 0.388037	-32.053490	 9.216179	 1.803333	 3.979147	-15.098590	 4.898592	 3.004813	-9.310344	 5.224449	 0.395017	 2.014677
-0.009771	 0.129933	 1.269134	 3.947511	 21.514570	 0.385967	-1.127626	-32.239740	 177.152200	 3.684942	-16.118580	 1.140477	 2.473694	 66.512760	-4.814965	-2.385833	 28.452760	 0.000004	-1.779316	-30.682480	-179.189100	-1.960934	-14.322760	 0.788767	 0.822732	 66.477620	 7.325594	 2.384659	 28.388700	-0.000001	-14.012460	 9.303955	 1.375446	-3.805215	-12.440390	-0.711201	 6.255881	 14.326900	-1.813311	-94.295120	 66.048280	 172.956600	 6.075284	 18.426430	-33.688670	 16.318380	 0.235089	-3.592060	-9.848211	-35.104950	-14.072180	-2.027600	 6.559038	 9.033609	-5.188889	 0.308190	 3.541030	-5.234859	 0.342567	 0.430617	 2.232861	 23.754820	-6.946975	 4.928318	-22.467840	 1.238778	 92.171550	 61.517750	-174.333900	-11.339310	 22.027370	 15.294240	-16.310310	-5.400532	 36.397950	 0.798950	-32.775300	 10.031870	 1.803333	 3.979147	-15.098590	 4.898592	 3.004813	-9.310344	 5.224449	 0.395017	 2.014677
-0.012708	 0.140963	 1.265289	 4.249347	 22.701090	 0.256615	-1.675349	-35.187620	 176.825100	 3.727850	-18.687030	 1.329940	 2.897332	 67.511410	-5.380205	-2.385833	 28.452750	 0.000004	-2.156065	-33.946530	-179.398800	-1.921613	-17.758960	 0.984509	 0.393201	 67.823200	 7.778936	 2.384659	 28.388700	-0.000001	-14.712850	 10.273600	 1.325840	-3.431734	-7.980785	 0.378147	 5.793998	 12.679050	-2.338887	-94.520190	 67.594020	 171.621200	 6.863637	 19.398400	-37.117280	 16.012580	 0.319292	-3.994797	-10.283890	-36.279040	-14.813080	-2.027600	 6.559038	 9.033609	-5.188889	 0.308190	 3.541030	-5.234859	 0.342567	 0.430617	 1.740437	 23.009630	-6.300106	 4.568957	-22.900530	 0.913420	 92.619710	 62.239650	-173.092400	-12.223730	 24.153370	 19.305600	-15.318360	-4.855774	 37.959270	 2.582785	-33.995820	 11.332860	 1.803333	 3.979147	-15.098590	 4.898592	 3.004813	-9.310344	 5.224449	 0.395017	 2.014677
-0.015514	 0.159051	 1.259225	 3.789027	 24.300890	 0.217820	-1.474222	-39.247810	 176.724900	 3.788358	-21.366700	 1.534384	 3.577211	 67.848550	-6.225843	-2.385833	 28.452750	 0.000004	-1.484596	-38.394890	-179.270100	-2.278283	-20.903690	 1.024044	 0.531734	 68.251370	 8.113978	 2.384659	 28.388700	-0.000001	-15.245160	 10.992710	 1.179279	-2.738583	-3.888774	 1.274590	 5.393193	 11.145850	-2.475004	-94.529820	 69.689670	 170.235500	 7.123487	 19.995090	-40.822270	 15.193690	 0.429764	-4.448844	-11.546800	-38.126210	-15.829840	-2.027600	 6.559038	 9.033609	-5.188889	 0.308190	 3.541030	-5.234859	 0.342567	 0.430617	 1.236746	 21.883970	-6.004752	 4.231788	-23.109350	 0.769677	 92.988090	 63.728130	-171.713500	-12.859620	 26.263080	 23.966980	-14.110590	-3.974827	 38.966680	 5.329549	-35.693720	 13.082030	 1.803333	 3.979147	-15.098590	 4.898592	 3.004813	-9.310344	 5.224449	 0.395017	 2.014677
